<svg width="444" height="230" viewBox="0 0 444 230" fill="none" xmlns="http://www.w3.org/2000/svg">
<path fill-rule="evenodd" clip-rule="evenodd" d="M0 1.90735e-06H444V230H0V1.90735e-06Z" fill="#005B4B"/>
<path d="M49 135.448H67.0053V134.448C63.3036 131.648 63.0036 127.146 63.0036 120.944L71.3068 101.838L76.1083 120.043C76.7085 122.645 77.4081 126.045 77.4081 129.046C77.4081 131.247 77.0085 133.247 75.9076 134.448V135.448H93.7133V134.448C89.7116 131.948 88.1121 127.946 86.6116 122.645L85.8104 119.544L77.5087 87.7342L82.2096 76.9307C84.4104 72.2286 86.6116 68.7281 90.7124 66.4278V65.427H78.8092V66.4278C79.6089 67.3281 80.0095 68.4279 80.0095 69.8279C80.0095 72.5287 78.3084 76.6306 76.3083 81.4322L63.0036 111.941V81.4322C63.0036 74.4298 63.0036 69.4287 67.0053 66.4278V65.427H49V66.4278C53.0013 69.4287 53.0013 74.4298 53.0013 81.4322V119.443C53.0013 126.446 53.0013 131.447 49 134.448V135.448Z" fill="white"/>
<path d="M108.017 108.241L113.119 83.9322L118.22 108.241H108.017ZM96.2131 129.446H107.817V128.446C106.416 127.146 106.017 124.545 106.017 121.844C106.017 119.244 106.416 116.243 106.817 114.342L107.317 111.741H118.921L119.821 116.043C120.121 117.843 120.421 119.944 120.421 121.944C120.421 124.645 119.92 127.046 118.42 128.446V129.446H135.525V128.446C132.224 126.246 130.724 123.145 129.624 118.843L122.522 84.8325C122.021 82.1317 121.721 80.0311 121.721 78.2304C121.721 75.6301 122.422 73.8296 123.922 72.4292V71.4288H107.917V72.4292C109.018 73.4289 109.717 75.6301 109.717 79.2309C109.717 81.132 109.518 83.5328 109.018 86.3341L103.316 113.441C101.915 120.444 100.815 125.445 96.2131 128.446V129.446Z" fill="white"/>
<path d="M106.416 68.4279H125.422V64.4261H106.416V68.4279Z" fill="white"/>
<path d="M139.027 135.448H157.033V134.448C153.031 131.447 153.031 126.446 153.031 119.443V107.439H156.932C165.578 107.439 172.224 165.64 231.696 139.116L231.295 138.215C185.555 157.944 179.079 115.31 164.035 107.34C179.539 106.14 179.539 94.0361 179.539 87.4341V85.4327C179.539 78.4313 179.539 65.427 161.334 65.427H139.027V66.4278C143.029 69.4287 143.029 74.4298 143.029 81.4322V119.443C143.029 126.446 143.029 131.447 139.027 134.448V135.448ZM153.031 103.439V69.4287H161.334C169.437 69.4287 169.536 76.2303 169.536 86.4333C169.536 96.6365 169.437 103.439 161.334 103.439H153.031Z" fill="white"/>
<path d="M184.14 129.446H195.744V128.446C194.343 127.146 193.943 124.545 193.943 121.844C193.943 119.244 194.343 116.243 194.743 114.342L195.243 111.741H206.848L207.748 116.043C208.048 117.843 208.348 119.944 208.348 121.944C208.348 124.645 207.847 127.046 206.346 128.446V129.446H223.452V128.446C220.151 126.246 218.65 123.145 217.55 118.843L210.448 84.8325C209.948 82.1317 209.647 80.0311 209.647 78.2304C209.647 75.6301 210.348 73.8296 211.849 72.4292V71.4288H195.843V72.4292C196.944 73.4289 197.644 75.6301 197.644 79.2309C197.644 81.132 197.444 83.5328 196.944 86.3341L191.243 113.441C189.842 120.444 188.742 125.445 184.14 128.446V129.446ZM195.944 108.241L201.045 83.9322L206.147 108.241H195.944Z" fill="white"/>
<path d="M224.115 135.448H237.12V134.448C233.118 131.447 233.118 126.446 233.118 119.443V80.8319L253.325 135.448H268.128V134.448C264.128 131.447 264.128 126.446 264.128 119.443V81.4322C264.128 74.4298 264.128 69.4287 268.128 66.4278V65.427H255.125V66.4278C259.125 69.4287 259.125 74.4298 259.125 81.4322V122.245L238.119 65.427H224.115V66.4278C228.117 69.4287 228.117 74.4298 228.117 81.4322V119.443C228.117 126.446 228.117 131.447 224.115 134.448V135.448Z" fill="white"/>
<path d="M273.93 135.473H291.937V134.472C287.935 131.472 287.935 126.47 287.935 119.468V95.0282V89.7309V60.7211C292.036 61.2139 296.237 61.4006 300.539 61.0794C310.642 60.3231 320.945 56.8509 331.549 47.7547L330.949 47C324.347 52.4946 317.544 54.8046 310.543 55.3277C293.438 56.6074 275.131 47.4746 256.025 48.9045C246.523 49.6142 236.82 52.9425 227.017 61.3779L227.517 62.0409C233.418 57.1971 239.621 55.2321 246.022 54.7537C256.025 54.0061 266.728 57.0066 277.932 59.1689V89.7309V95.7762V119.468C277.932 126.468 277.932 131.472 273.93 134.472V135.473Z" fill="white"/>
<path d="M294.224 135.448H312.23V134.448C308.228 131.447 308.228 126.446 308.228 119.443V99.0371H326.234V119.443C326.234 126.446 326.234 131.447 322.233 134.448V135.448H340.239V134.448C336.237 131.447 336.237 126.446 336.237 119.443V81.4322C336.237 74.4298 336.237 69.4287 340.239 66.4278V65.427H322.233V66.4278C326.234 69.4287 326.234 74.4298 326.234 81.4322V94.0361H308.228V81.4322C308.228 74.4298 308.228 69.4287 312.23 66.4278V65.427H294.224V66.4278C298.226 69.4287 298.226 74.4298 298.226 81.4322V119.443C298.226 126.446 298.226 131.447 294.224 134.448V135.448Z" fill="white"/>
<path d="M346.608 74.1296H349.109L347.808 65.427L344.607 66.7279L346.608 74.1296Z" fill="white"/>
<path d="M374.669 135.948C385.772 135.948 393.375 129.446 393.375 118.943C393.375 97.5366 362.766 92.3356 362.766 75.7303C362.766 71.4288 365.865 68.2283 371.768 68.2283C378.07 68.2283 381.371 71.9284 382.971 82.2319H383.971L388.973 68.2283C383.071 67.4271 380.971 64.9273 371.768 64.9273C361.365 64.9273 354.462 71.9284 354.462 80.3311C354.462 99.7375 384.471 105.84 384.471 122.845C384.471 129.046 380.27 132.447 374.669 132.447C367.666 132.447 362.365 128.047 362.365 112.642H352.362C352.362 128.546 363.165 135.948 374.669 135.948Z" fill="white"/>
<path d="M341.71 170.667C367.403 167.95 391.413 164.389 413.219 160.117C390.618 162.653 366.692 164.756 341.71 166.369V170.667ZM101.508 166.369C76.5256 164.756 52.6004 162.653 30 160.117C51.8052 164.389 75.8143 167.95 101.508 170.667V166.369Z" fill="#FFCC00"/>
<path d="M112.5 179.282C111.877 179.282 111.297 179.224 110.76 179.116C110.222 179.007 109.741 178.871 109.316 178.706C108.892 178.541 108.533 178.371 108.242 178.192L108.057 175.985C108.614 176.333 109.251 176.631 109.967 176.881C110.684 177.13 111.457 177.258 112.288 177.258C113.353 177.258 114.136 177.022 114.637 176.55C115.136 176.079 115.387 175.395 115.387 174.499V173.989C115.387 173.377 115.287 172.872 115.085 172.476C114.882 172.08 114.547 171.73 114.085 171.428C113.623 171.127 113.004 170.825 112.231 170.523C111.24 170.118 110.439 169.689 109.826 169.241C109.213 168.792 108.764 168.264 108.477 167.652C108.189 167.038 108.043 166.288 108.043 165.401V165.061C108.043 163.656 108.439 162.567 109.227 161.794C110.014 161.02 111.207 160.634 112.811 160.634C113.764 160.634 114.584 160.738 115.268 160.95C115.953 161.162 116.514 161.412 116.957 161.694L117.141 163.788C116.641 163.449 116.071 163.166 115.424 162.939C114.778 162.713 114.037 162.6 113.207 162.6C112.509 162.6 111.948 162.699 111.519 162.897C111.09 163.095 110.778 163.387 110.586 163.774C110.392 164.161 110.293 164.633 110.293 165.19V165.416C110.293 165.991 110.397 166.477 110.6 166.878C110.803 167.278 111.147 167.641 111.632 167.962C112.118 168.283 112.778 168.618 113.618 168.967C114.589 169.354 115.367 169.759 115.948 170.183C116.528 170.608 116.952 171.118 117.221 171.716C117.489 172.315 117.621 173.079 117.621 174.003V174.569C117.621 176.088 117.202 177.253 116.357 178.065C115.514 178.876 114.226 179.282 112.5 179.282ZM130.831 178.998H128.667V169.675C128.667 169.024 128.591 168.472 128.436 168.019C128.28 167.566 128.025 167.218 127.671 166.972C127.318 166.726 126.841 166.604 126.247 166.604C125.7 166.604 125.228 166.717 124.827 166.944C124.427 167.17 124.101 167.476 123.856 167.868C123.611 168.26 123.436 168.717 123.333 169.236L122.894 167.679H123.39C123.512 167.123 123.725 166.627 124.025 166.199C124.328 165.77 124.734 165.43 125.238 165.175C125.743 164.92 126.369 164.793 127.124 164.793C128.002 164.793 128.713 164.968 129.256 165.321C129.799 165.675 130.194 166.199 130.449 166.887C130.704 167.576 130.831 168.42 130.831 169.419V178.998ZM123.404 178.998H121.224V165.047H123.39L123.304 167.878L123.404 167.976V178.998ZM143.46 178.998H141.296L141.395 176.098L141.31 175.928V170.707V169.618C141.31 168.599 141.093 167.844 140.654 167.359C140.215 166.873 139.504 166.632 138.523 166.632C137.768 166.632 137.056 166.755 136.386 167.005C135.717 167.255 135.118 167.548 134.589 167.878L134.76 165.967C135.07 165.77 135.434 165.581 135.844 165.401C136.254 165.222 136.716 165.071 137.231 164.953C137.744 164.835 138.301 164.779 138.905 164.779C139.716 164.779 140.414 164.883 140.994 165.095C141.574 165.307 142.046 165.618 142.409 166.024C142.772 166.43 143.036 166.929 143.206 167.523C143.376 168.118 143.46 168.797 143.46 169.561V178.998ZM137.645 179.253C136.495 179.253 135.627 178.927 135.037 178.277C134.448 177.626 134.151 176.692 134.151 175.476V174.839C134.151 173.65 134.467 172.749 135.099 172.141C135.731 171.532 136.763 171.084 138.197 170.792L141.593 170.098L141.762 171.754L138.594 172.391C137.763 172.56 137.174 172.825 136.825 173.183C136.476 173.542 136.301 174.051 136.301 174.712V175.164C136.301 175.89 136.471 176.446 136.806 176.838C137.141 177.23 137.674 177.428 138.409 177.428C138.975 177.428 139.462 177.315 139.862 177.088C140.263 176.862 140.589 176.55 140.843 176.159C141.097 175.768 141.273 175.329 141.367 174.839L141.692 176.366H141.31C141.197 176.895 141.003 177.375 140.725 177.809C140.446 178.243 140.055 178.592 139.555 178.857C139.056 179.121 138.419 179.253 137.645 179.253ZM151.732 179.253C150.119 179.253 148.931 178.79 148.162 177.866C147.393 176.942 147.006 175.631 147.006 173.933V170.114C147.006 168.415 147.393 167.1 148.162 166.17C148.931 165.241 150.114 164.779 151.718 164.779C152.18 164.779 152.601 164.821 152.977 164.911C153.354 165.001 153.698 165.118 154.005 165.264C154.312 165.411 154.571 165.571 154.788 165.741L154.973 167.622C154.614 167.34 154.208 167.104 153.751 166.915C153.293 166.726 152.751 166.632 152.128 166.632C151.109 166.632 150.365 166.934 149.892 167.538C149.421 168.142 149.185 169.01 149.185 170.141V173.876C149.185 174.989 149.426 175.848 149.906 176.451C150.388 177.055 151.142 177.357 152.171 177.357C152.784 177.357 153.326 177.262 153.797 177.074C154.269 176.885 154.689 176.649 155.056 176.366L154.887 178.291C154.548 178.546 154.114 178.767 153.581 178.961C153.048 179.153 152.43 179.253 151.732 179.253ZM168.083 178.998H165.649L161.405 172.476H160.259V170.693H161.433L165.465 165.047H167.871L163.06 171.797V171.245L168.083 178.998ZM160.471 178.998H158.306V160.209H160.471V178.998ZM182.269 178.998H180.033V161.114H182.269V178.998ZM186.414 162.826H175.874V160.916H186.414V162.826ZM191.673 178.998H189.508V165.047H191.673V178.998ZM190.597 162.968C190.164 162.968 189.843 162.846 189.635 162.604C189.428 162.364 189.324 162.029 189.324 161.595V161.482C189.324 161.049 189.428 160.708 189.635 160.468C189.843 160.228 190.164 160.11 190.597 160.11C191.022 160.11 191.338 160.228 191.545 160.468C191.753 160.708 191.857 161.049 191.857 161.482V161.595C191.857 162.038 191.753 162.378 191.545 162.614C191.338 162.85 191.022 162.968 190.597 162.968ZM211.984 178.998H209.82V169.561C209.82 168.948 209.749 168.42 209.608 167.976C209.467 167.533 209.24 167.193 208.924 166.958C208.608 166.722 208.174 166.604 207.627 166.604C207.118 166.604 206.679 166.717 206.307 166.944C205.934 167.17 205.633 167.476 205.406 167.868C205.18 168.26 205.019 168.708 204.925 169.207L204.599 167.636H204.854C204.967 167.137 205.17 166.67 205.458 166.236C205.746 165.802 206.132 165.453 206.622 165.19C207.113 164.925 207.731 164.793 208.476 164.793C209.305 164.793 209.98 164.968 210.499 165.317C211.018 165.666 211.395 166.174 211.631 166.849C211.867 167.523 211.984 168.354 211.984 169.335V178.998ZM198.035 178.998H195.855V165.047H198.021L197.936 167.892L198.035 167.991V178.998ZM205.01 178.998H202.845V169.561C202.845 168.948 202.774 168.42 202.633 167.976C202.491 167.533 202.264 167.193 201.949 166.958C201.633 166.722 201.204 166.604 200.666 166.604C200.148 166.604 199.704 166.717 199.336 166.948C198.968 167.179 198.671 167.49 198.444 167.882C198.218 168.274 198.058 168.726 197.964 169.236L197.511 167.679H198.021C198.143 167.133 198.341 166.642 198.615 166.208C198.888 165.774 199.266 165.43 199.742 165.175C200.218 164.92 200.807 164.793 201.515 164.793C202.543 164.793 203.326 165.076 203.859 165.642C204.391 166.208 204.732 167.038 204.882 168.132C204.92 168.311 204.953 168.5 204.977 168.703C205 168.906 205.01 169.118 205.01 169.335V178.998ZM220.85 179.253C219.105 179.253 217.789 178.795 216.902 177.885C216.016 176.975 215.572 175.645 215.572 173.89V169.971C215.572 168.283 215.978 166.991 216.785 166.095C217.592 165.199 218.78 164.751 220.355 164.751C221.402 164.751 222.279 164.953 222.982 165.359C223.685 165.765 224.209 166.349 224.557 167.118C224.906 167.887 225.081 168.811 225.081 169.887V170.962C225.081 171.292 225.071 171.627 225.052 171.966C225.034 172.306 225.001 172.645 224.953 172.985H222.987C222.996 172.354 223.001 171.773 223.001 171.245C223.001 170.717 223.001 170.211 223.001 169.731C223.001 169.033 222.907 168.449 222.713 167.976C222.52 167.504 222.227 167.147 221.835 166.901C221.445 166.656 220.95 166.534 220.355 166.534C219.459 166.534 218.799 166.807 218.37 167.354C217.941 167.901 217.724 168.708 217.724 169.774V171.994V172.32V174.102C217.724 174.631 217.794 175.098 217.936 175.504C218.077 175.909 218.294 176.248 218.582 176.527C218.87 176.805 219.232 177.017 219.676 177.164C220.119 177.31 220.638 177.386 221.232 177.386C221.93 177.386 222.586 177.287 223.195 177.088C223.803 176.89 224.368 176.626 224.897 176.296L224.713 178.22C224.232 178.522 223.666 178.767 223.015 178.961C222.364 179.153 221.643 179.253 220.85 179.253ZM224.472 172.985H216.804V171.315H224.472V172.985ZM228.514 175.234H230.594C230.613 175.414 230.641 175.65 230.673 175.942C230.707 176.234 230.721 176.55 230.721 176.89C230.721 177.965 230.575 178.966 230.278 179.894C229.981 180.823 229.481 181.724 228.783 182.592L227.283 182.068C227.717 181.333 228.047 180.55 228.273 179.724C228.5 178.899 228.613 177.984 228.613 176.975C228.613 176.673 228.604 176.381 228.585 176.098C228.566 175.815 228.542 175.527 228.514 175.234ZM242.629 178.998H240.45V160.916H242.629V178.998ZM249.293 178.998H241.398V177.088H249.293V178.998ZM249.094 170.707H241.78V168.811H249.094V170.707ZM249.251 162.826H241.369V160.916H249.251V162.826ZM255.187 178.998H253.009V160.209H255.187V178.998ZM264.238 179.253C262.492 179.253 261.176 178.795 260.29 177.885C259.403 176.975 258.96 175.645 258.96 173.89V169.971C258.96 168.283 259.365 166.991 260.172 166.095C260.979 165.199 262.167 164.751 263.742 164.751C264.789 164.751 265.666 164.953 266.369 165.359C267.071 165.765 267.595 166.349 267.944 167.118C268.293 167.887 268.468 168.811 268.468 169.887V170.962C268.468 171.292 268.458 171.627 268.439 171.966C268.42 172.306 268.387 172.645 268.34 172.985H266.374C266.383 172.354 266.388 171.773 266.388 171.245C266.388 170.717 266.388 170.211 266.388 169.731C266.388 169.033 266.293 168.449 266.1 167.976C265.907 167.504 265.614 167.147 265.222 166.901C264.831 166.656 264.337 166.534 263.742 166.534C262.845 166.534 262.185 166.807 261.757 167.354C261.328 167.901 261.111 168.708 261.111 169.774V171.994V172.32V174.102C261.111 174.631 261.181 175.098 261.323 175.504C261.464 175.909 261.681 176.248 261.968 176.527C262.256 176.805 262.619 177.017 263.063 177.164C263.506 177.31 264.025 177.386 264.619 177.386C265.317 177.386 265.973 177.287 266.582 177.088C267.189 176.89 267.755 176.626 268.284 176.296L268.099 178.22C267.619 178.522 267.053 178.767 266.402 178.961C265.751 179.153 265.03 179.253 264.238 179.253ZM267.859 172.985H260.191V171.315H267.859V172.985ZM275.989 177.499H276.273L279.158 165.047H281.38L277.913 178.998H274.348L270.881 165.047H273.103L275.989 177.499ZM292.692 178.998H290.528L290.627 176.098L290.542 175.928V170.707V169.618C290.542 168.599 290.325 167.844 289.887 167.359C289.448 166.873 288.736 166.632 287.755 166.632C287 166.632 286.288 166.755 285.619 167.005C284.949 167.255 284.35 167.548 283.822 167.878L283.992 165.967C284.303 165.77 284.666 165.581 285.076 165.401C285.487 165.222 285.949 165.071 286.463 164.953C286.977 164.835 287.533 164.779 288.137 164.779C288.948 164.779 289.646 164.883 290.226 165.095C290.806 165.307 291.278 165.618 291.641 166.024C292.004 166.43 292.269 166.929 292.438 167.523C292.609 168.118 292.692 168.797 292.692 169.561V178.998ZM286.878 179.253C285.727 179.253 284.859 178.927 284.27 178.277C283.681 177.626 283.383 176.692 283.383 175.476V174.839C283.383 173.65 283.699 172.749 284.331 172.141C284.963 171.532 285.995 171.084 287.429 170.792L290.826 170.098L290.995 171.754L287.826 172.391C286.995 172.56 286.406 172.825 286.057 173.183C285.708 173.542 285.533 174.051 285.533 174.712V175.164C285.533 175.89 285.704 176.446 286.039 176.838C286.373 177.23 286.906 177.428 287.641 177.428C288.208 177.428 288.694 177.315 289.094 177.088C289.495 176.862 289.821 176.55 290.075 176.159C290.33 175.768 290.505 175.329 290.599 174.839L290.925 176.366H290.542C290.429 176.895 290.235 177.375 289.958 177.809C289.679 178.243 289.288 178.592 288.787 178.857C288.288 179.121 287.651 179.253 286.878 179.253ZM300.681 179.224C299.824 179.224 299.126 179.083 298.588 178.804C298.05 178.527 297.653 178.111 297.399 177.555C297.145 176.998 297.018 176.31 297.018 175.49V165.826H299.154V175.121C299.154 175.885 299.318 176.437 299.649 176.777C299.979 177.116 300.526 177.287 301.29 177.287C301.706 177.287 302.106 177.239 302.488 177.144C302.87 177.051 303.224 176.923 303.554 176.763L303.37 178.659C303.03 178.828 302.63 178.966 302.163 179.069C301.696 179.173 301.201 179.224 300.681 179.224ZM303.172 166.972H295.149V165.218H303.341L303.172 166.972ZM299.097 165.43H297.046L297.032 161.68L299.196 161.369L299.097 165.43ZM311.133 179.253C309.387 179.253 308.071 178.795 307.185 177.885C306.298 176.975 305.855 175.645 305.855 173.89V169.971C305.855 168.283 306.261 166.991 307.067 166.095C307.874 165.199 309.062 164.751 310.637 164.751C311.685 164.751 312.561 164.953 313.264 165.359C313.967 165.765 314.491 166.349 314.84 167.118C315.189 167.887 315.364 168.811 315.364 169.887V170.962C315.364 171.292 315.353 171.627 315.334 171.966C315.316 172.306 315.283 172.645 315.235 172.985H313.269C313.278 172.354 313.283 171.773 313.283 171.245C313.283 170.717 313.283 170.211 313.283 169.731C313.283 169.033 313.189 168.449 312.995 167.976C312.803 167.504 312.51 167.147 312.118 166.901C311.727 166.656 311.232 166.534 310.637 166.534C309.741 166.534 309.081 166.807 308.652 167.354C308.223 167.901 308.006 168.708 308.006 169.774V171.994V172.32V174.102C308.006 174.631 308.076 175.098 308.218 175.504C308.36 175.909 308.577 176.248 308.863 176.527C309.152 176.805 309.515 177.017 309.958 177.164C310.401 177.31 310.92 177.386 311.515 177.386C312.212 177.386 312.868 177.287 313.477 177.088C314.085 176.89 314.651 176.626 315.179 176.296L314.995 178.22C314.514 178.522 313.948 178.767 313.297 178.961C312.646 179.153 311.925 179.253 311.133 179.253ZM314.755 172.985H307.086V171.315H314.755V172.985ZM322.602 179.253C321.244 179.253 320.23 178.8 319.556 177.894C318.881 176.989 318.542 175.673 318.542 173.947V170.141C318.542 168.396 318.881 167.066 319.56 166.156C320.239 165.246 321.272 164.793 322.658 164.793C323.357 164.793 323.951 164.916 324.441 165.165C324.932 165.416 325.327 165.765 325.625 166.208C325.922 166.651 326.12 167.165 326.224 167.75H326.903L326.295 169.731C326.276 169.061 326.149 168.491 325.908 168.019C325.667 167.548 325.332 167.184 324.909 166.934C324.484 166.684 323.979 166.562 323.394 166.562C322.508 166.562 321.838 166.849 321.385 167.425C320.932 168 320.706 168.849 320.706 169.971V174.074C320.706 175.169 320.928 175.999 321.371 176.569C321.814 177.14 322.489 177.428 323.394 177.428C323.932 177.428 324.403 177.315 324.805 177.093C325.205 176.871 325.536 176.56 325.794 176.159C326.054 175.758 326.233 175.305 326.337 174.796L326.819 176.352H326.253C326.139 176.899 325.936 177.39 325.644 177.829C325.352 178.267 324.96 178.617 324.465 178.871C323.97 179.125 323.348 179.253 322.602 179.253ZM328.417 178.998H326.253L326.351 176.112L326.295 175.716V168.486L326.323 168.104L326.253 164.397V160.209H328.417V178.998ZM335.019 160.916L334.75 173.551H332.981L332.713 160.916H335.019ZM333.873 179.253C333.439 179.253 333.118 179.116 332.906 178.848C332.695 178.578 332.586 178.201 332.586 177.71V177.527C332.586 177.036 332.695 176.659 332.906 176.4C333.118 176.14 333.439 176.013 333.873 176.013C334.307 176.013 334.632 176.14 334.849 176.4C335.067 176.659 335.175 177.036 335.175 177.527V177.71C335.175 178.201 335.067 178.578 334.849 178.848C334.632 179.116 334.307 179.253 333.873 179.253Z" fill="white"/>
</svg>
