<?xml version="1.0" encoding="utf-8"?>
<!-- Generator: Adobe Illustrator 16.0.0, SVG Export Plug-In . SVG Version: 6.00 Build 0)  -->
<!DOCTYPE svg PUBLIC "-//W3C//DTD SVG 1.1//EN" "http://www.w3.org/Graphics/SVG/1.1/DTD/svg11.dtd" [
	<!ENTITY ns_extend "http://ns.adobe.com/Extensibility/1.0/">
	<!ENTITY ns_ai "http://ns.adobe.com/AdobeIllustrator/10.0/">
	<!ENTITY ns_graphs "http://ns.adobe.com/Graphs/1.0/">
	<!ENTITY ns_vars "http://ns.adobe.com/Variables/1.0/">
	<!ENTITY ns_imrep "http://ns.adobe.com/ImageReplacement/1.0/">
	<!ENTITY ns_sfw "http://ns.adobe.com/SaveForWeb/1.0/">
	<!ENTITY ns_custom "http://ns.adobe.com/GenericCustomNamespace/1.0/">
	<!ENTITY ns_adobe_xpath "http://ns.adobe.com/XPath/1.0/">
]>
<svg version="1.1" id="Layer_1" xmlns:x="&ns_extend;" xmlns:i="&ns_ai;" xmlns:graph="&ns_graphs;"
	 xmlns="http://www.w3.org/2000/svg" xmlns:xlink="http://www.w3.org/1999/xlink" x="0px" y="0px" width="249.758px"
	 height="210.704px" viewBox="0 0 249.758 210.704" style="enable-background:new 0 0 249.758 210.704;" xml:space="preserve">
<style type="text/css">
<![CDATA[
	.st0{fill:#666766;}
]]>
</style>
<metadata>
	<sfw  xmlns="&ns_sfw;">
		<slices></slices>
		<sliceSourceBounds  y="229.447" x="258.528" width="211.017" height="172.617" bottomLeftOrigin="true"></sliceSourceBounds>
	</sfw>
</metadata>
<g>
	<path class="st0" d="M169.917,100.331c-1.523,2.038-2.097,3.031-3.23,5.281c-1.317,2.614-4.001,9.407-4.001,13.022
		c0,3.197-0.231,3.71,1.965,3.71c2.122,0,5.808-6.448,6.765-8.513l1.592-3.428c1.05-2.461,1.969-4.518,2.855-7.183
		c0.455-1.364,0.849-2.504,1.199-3.84C177.963,95.936,173.339,95.746,169.917,100.331z"/>
	<path class="st0" d="M195.171,21.529c-11.35-0.594-23.04-0.669-34.427-1.406c-2.805-0.043-7.403,0.101-10.763-0.279
		c-54.237,0-116.606,3.632-116.606,3.632l-13.671,87.362l30.252-4.031l-4.887,47.675c36.126-5.109,82.166-17.437,170.038-13.034
		l9.116-68.749l-29.414,0.067l12.063-50.689c-1.99-0.225-4.101-0.427-6.299-0.613C199.234,21.924,197.813,21.668,195.171,21.529z
		 M166.365,46.681c1.222-0.464,3.465-0.621,5.247-0.621c1.748-3.304,2.487-8.757,2.62-9.115c0.821-2.234,4.617-3.925,7.811-3.925
		c6.305,0,0.413,6.821-1.085,13.257c2.983,0,8.691-1.03,8.691,0.653c0,1.034-2.843,2.449-3.938,2.58
		c-1.928,0.228-3.886,0.244-6.058,0.244c-0.074,0.891-5.85,17.304-6.092,22.604c-0.134,2.935-0.205,3.32,1.717,5.023
		c0.694,0.614,0.124-0.203,0.616,0.688c0.216,0.391,0.187,0.396,0.282,0.806c-0.727,0.835-1.451,1.345-2.63,1.717
		c-4.229,1.335-9.975,1.144-9.975-4.977c0-2.659,2.389-10.755,3.136-13.38l3.818-12.697c-1.535,0-2.478,0.121-3.896,0.234
		c-1.586,0.126-1.806,0.646-3.059-0.018C163.684,48.405,165.26,47.1,166.365,46.681z M158.444,29.544h1.086
		c2.188,0,4.346,2.119,4.346,4.346c0,6.456-6.013,8.365-9.227,6.185c-1.873-1.271-1.855-2.818-1.855-4.663
		C152.794,32.765,155.78,29.544,158.444,29.544z M150.613,47.79c-0.037-3.067,1.532-3.084,4.327-3.293
		c3.021-0.228,5.025-0.041,5.025,2.649c0,3.099-5.942,19.873-7.087,27.465c-0.572,3.786,0.792,6.436-6.17,6.436
		c-2.627,0-4.407-0.634-3.83-3.162c0.476-2.09,1.143-3.882,1.793-5.83c1.874-5.615,3.678-11.84,4.955-17.645
		C150.115,52.191,150.644,50.413,150.613,47.79z M119.396,45.285c0.951-0.506,7.784-1.513,8.309,1.505
		c0.286,1.645-5.18,16.852-6.041,19.234c-0.758,2.096-3.06,7.416-0.189,7.416c4.242,0,11.648-17.608,13.23-21.973
		c0.792-2.187,1.733-6.712,4.806-6.712c2.438,0,5.871-0.51,5.292,2.441l-2.22,7.801c-1.453,4.287-3.166,11.031-4.335,15.659
		c-0.693,2.746-0.82,4.147-0.503,6.73c0.121,0.987,0.146,1.642-0.329,2.215c-1.203,1.456-8.771,2.528-8.771-1.815
		c0-3.135,0.382-3.862,1.331-6.709c0.274-0.82,0.545-1.729,0.873-2.604c0.278-0.742,0.757-1.666,0.838-2.64
		c-0.793,0.212-0.554,0.184-0.95,1.005c-1.025,2.128-3.687,6.283-5.198,8.059c-1.806,2.123-5.619,5.931-9.279,5.931
		c-3.305,0-5.434-1.319-5.434-5.433c0-3.868,2.494-10.411,3.722-14.098c1.108-3.323,3.884-10.731,3.884-13.936
		C118.431,47.36,117.878,46.093,119.396,45.285z M93.466,44.573c2.209,0,5.848-0.491,5.848,2.104c0,2.656-1.393,6.767-2.236,8.991
		c-0.572,1.508-2.675,6.837-2.675,8.086c1.509-1.106,6.937-15.492,12.701-18.644c0.939-0.514,2.091-1.007,3.438-1.007
		c3.564,0,3.509,4.129,3.509,6.083c0,2.962-3.31,9.823-5.849,9.823c-1.092,0-1.307-1.827-1.539-2.905
		c-0.285-1.324-0.525-2.234-0.799-3.409c-0.797,0-0.617-0.075-1.224,0.18c-0.072,0.029-0.715,0.494-0.811,0.594
		c-1.596,1.667-4.632,6.447-5.61,8.425c-1.945,3.935-3.756,6.586-5.253,11.354c-1.055,3.36,0.303,6.58-4.413,6.58
		c-2.145,0-5.708,0.266-6.243-2.428c-0.232-1.172,3.458-13.706,3.933-15.32l3.391-12.749C89.986,48.412,88.537,44.573,93.466,44.573
		z M49.465,95.232c-3.065,2.853-7.191,4.267-11.641,4.267c0.032-1.445,0.491-1.477,1.167-2.342c0.552-0.705,0.996-1.023,1.572-1.703
		c1.559-1.838,4.412-6.116,5.452-8.115c2.652-5.104,4.273-8.556,6.051-14.302c0.555-1.797,0.997-3.375,1.479-5.303
		c0.216-0.868,0.452-1.813,0.702-2.807c0.141-0.559,0.427-2.146,0.654-2.621c-2.278,0-4.158,0.032-6.28,0.271
		c-0.766,0.085-2.307,0.667-2.576-0.315c-0.196-0.72,0.919-1.54,1.33-1.868c2.451-1.956,5.428-1.416,7.885-1.94
		c2.514-0.537,0.61-5.09,9.056-13.634c1.351-1.369,2.939-2.098,3.452-2.864c-2.673-0.059-8.165-3.154-12.237-1.242
		c-4.62,2.169-2.836,6.682-3.201,11.067c-5.052,1.177-8.916-4.564-8.668-9.367c0.236-4.639,9.093-5.786,12.423-6.059
		c2.921-0.239,14.961,0.386,17.701,0.754c10.544,1.413,13.803-1.702,16.204-1.702c0.725,3.104-0.976,7.944-2.93,9.234
		c-3.452,2.279-10.738-2.52-15.421,0.484c-3.136,2.011-5.708,11.192-5.742,12.736c2.345,0,11.937-0.669,13.333,0
		c0.359,0.75,0.166,1.165-0.311,1.788c-1.098,1.435-3.066,2.194-4.96,2.532c-3.052,0.544-6.03,0.125-9.466,0.125l-3.538,12.601
		C58.368,82.649,55.587,89.536,49.465,95.232z M58.523,91.052c0-3.168,2.867-3.933,5.591-4.886
		c6.467-2.262,11.852-2.316,18.741-2.316h0.329c5.348,0,9.316,1.225,13.09,1.315c2.486,0.06,4.153,0.237,6.739-0.037
		c0.89-0.094,2.077-0.253,3.003-0.488c0.98-0.249,2.006-0.741,2.661-0.79h0.192c0.314,0.028,0.504,0.209,0.504,0.655
		c0,1.755-2.527,4.37-3.655,5.512c-6.731,6.813-13.515,2.764-19.946,0.193c-7.804-3.118-9.676-3.599-16.525,1.526
		c-2.439,1.824-5.9,5.645-8.104,5.645C59.551,97.381,58.523,92.992,58.523,91.052z M86.468,96.34l-3.6,10.804
		c-0.57,1.936-1.073,3.73-1.641,5.562c-1.113,3.59-3.932,14.624-3.375,17.934c0.69,4.118,2.475,2.679,2.475,4.736
		c0,0.998-12.876,5.963-12.876-2.4c0-9.91,9.165-29.701,9.165-39.72c1.921-1.017,3.852-1.309,6.767-1.309
		c1.351,0,3.951-0.338,3.797,1.642C87.111,94.464,86.684,95.697,86.468,96.34z M122.626,109.249c-1.583,0-1.736-3.186-2.168-5.032
		c-0.153-0.657-0.168-1.296-0.887-1.296c-1.444,0-4.293,4.556-5.109,5.803c-2.335,3.565-5.894,10.828-7.086,14.52
		c-1.17,3.616,0.191,6.521-4.172,6.521c-2.223,0-5.835,0.489-6.396-2.34c-0.216-1.087,0.579-3.318,0.894-4.47l5.981-21.953
		c1.164-4.579-0.552-5.36,2.063-6.668c1.375-0.688,5.002-0.626,6.452-0.19c0.961,0.291,1.48,0.846,1.48,2.013
		c0,4.318-4.979,15.008-5.02,16.804h0.437l2.907-5.821c0.311-0.623,0.507-0.896,0.793-1.391c1.881-3.236,1.723-3.312,4.025-6.669
		c0.589-0.856,1.23-1.729,1.927-2.437c1.172-1.188,3.198-3.106,5.407-3.106C132.705,93.536,125.964,109.249,122.626,109.249z
		 M147.924,96.374c-6.472-1.508-10.559,10.514-11.7,15.579c-1.108,4.92-3.353,14.151,4.946,13.036
		c3.547-0.477,6.919-4.172,7.845-4.172c2.765,0-1.176,5.356-3.88,7.031c-2.441,1.512-5.335,2.571-8.341,2.571
		c-0.984,0-2.94-0.287-3.849-0.518c-10.663-2.71-7.587-18.079-2.523-26.151c2.924-4.661,8.879-10.215,15.101-10.215
		c3.423,0,7.467,0,9.241,4.072c1.2,2.75,0.219,6.269-1.073,8.241c-3.051,4.654-10.539,8.068-15.587,6.893
		c0-0.123-0.716-1.555,0.878-2.177c0.952-0.369,1.739-0.161,2.837-0.656c3.061-1.378,4.722-4.911,5.756-7.993
		C148.258,99.873,148.398,98.411,147.924,96.374z M184.815,103.227l-4.758,18.158c-1.574,6.301-0.349,4.496-0.349,6.197
		c0,1.974-3.646,2.401-5.238,2.401c-4.449,0-4.679-1.973-3.412-5.813c0.416-1.264,2.304-6.479,2.32-7.28
		c-0.867,0.231-0.546,0.194-1.381,1.89l-3.603,5.783c-2.885,3.59-4.745,5.202-8.983,5.202c-4.31,0-6.029-5.075-5.754-9.052
		c0.191-2.782,0.231-4.406,0.83-6.784c1.755-6.974,5.904-14.398,12.028-18.089c3.128-1.884,6.934-2.505,10.388-1.244
		c3.916,1.43,1.029,1.494,5.128,0.391c0.912-0.246,4.441-0.939,4.441,0.732C186.474,97.165,185.231,101.563,184.815,103.227z
		 M196.116,94.859c0.388-1.667,1.198-3.654,1.72-5.264c0.666-2.053-0.102-6.169,6.439-7.309c8.162-1.425,4.153,3.881,1.961,10.035
		c-0.346,0.966-0.867,1.928-0.955,2.973c1.919,0,3.04-0.133,4.799-0.222c0.127-0.007,4.476-0.883,3.698,1.102
		c-1.043,2.662-7.647,2.612-9.807,2.612l-1.773,5.646c-0.581,1.712-1.186,3.794-1.67,5.532c-0.914,3.281-2.667,8.271-2.667,11.737
		c0,3.376,0.214,2.834,1.948,4.599l0.671,1.075c-0.707,1.336-1.139,1.465-2.643,1.942c-4.092,1.301-9.797,1.154-9.797-4.779
		c0-3.314,2.155-10.3,3.131-13.673l3.635-12.297c-1.417,0-2.68-0.02-3.779,0.148c-0.955,0.148-2.986,0.789-2.986-0.367
		c0-0.686,0.814-1.413,1.252-1.804c0.595-0.529,1.057-0.787,1.836-1C192.203,95.255,194.899,94.887,196.116,94.859z"/>
	<path class="st0" d="M45.777,187.281l-0.53,5.18c36.126-5.541,82.166-18.418,170.037-15.064V172.3
		C127.842,168.963,81.824,181.697,45.777,187.281z"/>
	<path class="st0" d="M99.876,159.251c0.433-0.321,0.863-0.512,1.292-0.571c0.795-0.111,1.396,0.034,1.797,0.438
		c0.404,0.404,0.684,1.169,0.841,2.295l0.863,6.159l1.881-0.264l-0.918-6.551c-0.396-2.82-1.753-4.067-4.072-3.743
		c-1.404,0.197-2.344,0.862-2.817,1.99l-0.784-1.278l-1.285,0.18l1.482,10.579l1.883-0.264l-1.104-7.868
		C99.131,159.939,99.448,159.576,99.876,159.251z"/>
	<polygon class="st0" points="86.724,163.322 91.007,169.982 91.489,169.902 93.491,158.513 91.658,158.817 90.378,166.132 
		86.339,159.7 85.856,159.781 84.191,167.158 80.798,160.619 78.804,160.95 84.356,171.086 84.839,171.006 	"/>
	<path class="st0" d="M118.208,165.148c0.279,0.237,0.673,0.424,1.181,0.562c0.507,0.135,1.011,0.177,1.512,0.122
		c1.55-0.165,2.722-0.804,3.521-1.916c0.799-1.114,1.103-2.556,0.913-4.33c-0.164-1.537-0.75-2.758-1.762-3.667
		c-1.011-0.908-2.243-1.287-3.699-1.131c-0.477,0.052-0.949,0.205-1.419,0.463c-0.472,0.257-0.783,0.519-0.937,0.782l-0.548-5.125
		l-1.89,0.202l1.624,15.172l0.945-0.102L118.208,165.148z M118.423,156.848c0.392-0.244,0.703-0.377,0.933-0.401
		c1.098-0.117,2.007,0.128,2.726,0.731c0.719,0.608,1.145,1.515,1.274,2.72c0.155,1.453-0.013,2.515-0.502,3.189
		c-0.489,0.676-1.373,1.081-2.657,1.219c-0.244,0.026-0.615-0.057-1.108-0.248c-0.495-0.193-0.748-0.341-0.759-0.445l-0.657-6.141
		C117.78,157.299,118.032,157.092,118.423,156.848z"/>
	<path class="st0" d="M63.207,165.196c0.415-0.077,0.849-0.013,1.306,0.192l0.44-1.954c-0.651,0-1.145,0.028-1.475,0.091
		c-1.342,0.249-2.24,1.061-2.688,2.433l-0.311-1.667l-1.868,0.348l1.955,10.502l1.868-0.348l-1.123-6.031
		c-0.159-0.856-0.048-1.632,0.334-2.333C62.024,165.731,62.547,165.319,63.207,165.196z"/>
	<path class="st0" d="M73.687,172.813c1.466-0.261,2.534-0.955,3.213-2.086c0.676-1.134,0.863-2.546,0.562-4.242
		c-0.304-1.706-0.956-2.962-1.958-3.772c-1.002-0.815-2.254-1.086-3.759-0.818c-1.428,0.254-2.488,0.958-3.186,2.111
		c-0.696,1.154-0.899,2.547-0.61,4.172c0.299,1.676,0.955,2.936,1.969,3.775S72.185,173.081,73.687,172.813z M70.167,164.824
		c0.382-0.784,0.998-1.25,1.849-1.401c1.854-0.33,3.011,0.809,3.474,3.414c0.218,1.222,0.143,2.231-0.225,3.027
		c-0.367,0.794-0.984,1.268-1.85,1.421c-1.859,0.332-3.027-0.82-3.496-3.458C69.702,166.607,69.784,165.607,70.167,164.824z"/>
	<path class="st0" d="M51.336,176.877c0.886-0.15,1.771-0.443,2.666-0.875c0.889-0.431,1.56-0.912,2.007-1.446l-1.066-6.27
		l-3.967,0.675l0.285,1.672l1.993-0.34l0.573,3.367c-0.541,0.736-1.333,1.196-2.379,1.375c-1.474,0.251-2.721-0.059-3.746-0.93
		c-1.029-0.871-1.684-2.138-1.967-3.803c-0.297-1.751-0.101-3.232,0.588-4.441c0.691-1.212,1.79-1.943,3.296-2.2
		c0.95-0.162,1.982,0.038,3.097,0.601l0.54-1.759c-1.084-0.672-2.38-0.88-3.881-0.624c-2.144,0.365-3.731,1.35-4.757,2.95
		c-1.025,1.602-1.35,3.518-0.97,5.746c0.38,2.235,1.261,3.93,2.641,5.082C47.667,176.808,49.349,177.216,51.336,176.877z"/>
	<path class="st0" d="M182.925,151.66l-0.01,7.016c0,1.236,0.308,2.193,0.931,2.865c0.618,0.67,1.518,1.009,2.686,1.011
		c0.612,0,1.238-0.177,1.882-0.525c0.642-0.35,1.07-0.734,1.282-1.153l-0.002,1.478l1.899,0.003l0.013-10.683l-1.899-0.003
		l-0.009,7.506c-0.168,0.474-0.509,0.89-1.027,1.249c-0.521,0.357-1.089,0.537-1.716,0.535c-1.426-0.001-2.14-0.826-2.138-2.476
		l0.008-6.819L182.925,151.66z"/>
	<path class="st0" d="M195.965,151.695l-0.237,10.679l1.898,0.042l0.137-6.132c0.02-0.872,0.288-1.607,0.805-2.217
		c0.515-0.604,1.11-0.9,1.78-0.886c0.422,0.01,0.835,0.162,1.24,0.456l0.83-1.822c-0.637-0.135-1.126-0.207-1.462-0.214
		c-1.365-0.029-2.411,0.579-3.13,1.831l0.038-1.695L195.965,151.695z"/>
	<path class="st0" d="M214.286,156.584c0.044-1.364-0.34-2.475-1.148-3.329c-0.836-0.888-2.016-1.355-3.537-1.405
		c-1.311-0.044-2.459,0.396-3.446,1.313c-1.106,1.029-1.687,2.428-1.744,4.19c-0.056,1.694,0.42,3.063,1.432,4.1
		c0.906,0.942,2.031,1.437,3.375,1.48c0.93,0.031,1.777-0.08,2.546-0.34c0.607-0.194,1.066-0.435,1.369-0.717l-0.753-1.395
		c-0.745,0.616-1.657,0.907-2.739,0.87c-0.949-0.03-1.715-0.348-2.302-0.953c-0.662-0.692-0.972-1.663-0.931-2.912l7.69,0.252
		C214.208,157.39,214.272,157.007,214.286,156.584z M206.494,156.121c0.1-0.776,0.428-1.417,0.992-1.924
		c0.59-0.528,1.306-0.781,2.154-0.753c0.904,0.03,1.61,0.336,2.119,0.915c0.462,0.532,0.68,1.184,0.654,1.955L206.494,156.121z"/>
	<path class="st0" d="M131.563,166.651c-0.533,0.418-1.192,0.657-1.979,0.724l0.142,1.689c0.967-0.081,1.82-0.378,2.566-0.895
		c0.748-0.517,1.214-1.124,1.402-1.818l3.459-12.832l-1.934,0.162l-2.108,8.465l-3.814-7.968l-1.934,0.162l3.508,7.163
		c0.393,0.808,0.719,1.483,0.971,2.033c0.254,0.55,0.404,1.117,0.452,1.697C132.338,165.768,132.095,166.239,131.563,166.651z"/>
	<path class="st0" d="M172.865,153.146l1.245-0.01l0.045,6.069c0.007,0.959,0.306,1.75,0.893,2.376
		c0.59,0.626,1.307,0.935,2.154,0.928c0.942-0.006,1.808-0.112,2.592-0.317l-0.291-1.66c-0.52,0.249-1.024,0.375-1.512,0.379
		c-0.674,0.004-1.167-0.182-1.471-0.559c-0.307-0.379-0.465-1.017-0.471-1.916l-0.039-5.313l2.941-0.021l-0.012-1.492l-2.94,0.022
		l-0.021-2.962l-1.895,0.743l0.016,2.232l-1.246,0.01L172.865,153.146z"/>
	<polygon class="st0" points="146.499,148.904 147.262,163.488 149.158,163.389 148.611,152.925 156.717,163.198 157.309,163.168 
		156.534,148.379 154.638,148.479 155.165,158.575 147.294,148.863 	"/>
	<path class="st0" d="M162.053,156.943c-0.923,0.781-1.368,1.711-1.334,2.797c0.027,0.908,0.357,1.655,0.992,2.245
		c0.632,0.589,1.366,0.874,2.202,0.848c1.56-0.048,2.704-0.561,3.431-1.537c0.182,0.499,0.465,0.852,0.856,1.057
		c0.388,0.207,0.97,0.299,1.741,0.274l-0.028-0.94c-0.567-0.295-0.866-0.912-0.895-1.849l-0.119-3.83
		c-0.047-1.539-0.433-2.647-1.154-3.33c-0.723-0.684-1.861-1.002-3.408-0.955c-0.579,0.019-1.181,0.143-1.811,0.37
		c-0.627,0.228-1.117,0.49-1.469,0.795l0.847,1.567c0.619-0.66,1.519-1.008,2.701-1.044c1.542-0.048,2.338,0.793,2.391,2.521
		c-0.508-0.162-0.964-0.235-1.361-0.224C164.167,155.755,162.975,156.166,162.053,156.943z M167.039,157.28l0.079,2.594
		c-0.707,0.934-1.536,1.416-2.492,1.445c-1.303,0.04-1.974-0.497-2.009-1.61c-0.021-0.674,0.265-1.269,0.852-1.781
		c0.586-0.512,1.358-0.783,2.311-0.813C166.019,157.106,166.439,157.162,167.039,157.28z"/>
	<polygon class="st0" points="216.3,35.942 216.3,27.449 219.171,27.449 219.171,25.895 211.458,25.895 211.458,27.449 
		214.287,27.449 214.287,35.942 	"/>
	<polygon class="st0" points="225.512,33.3 225.472,33.3 222.919,25.895 220.275,25.895 220.275,35.942 222.29,35.942 
		222.29,29.069 222.332,29.063 224.814,35.942 226.181,35.942 228.666,29.076 228.708,29.083 228.708,35.942 230.722,35.942 
		230.722,25.895 228.093,25.895 	"/>
</g>
</svg>
